<svg width="21" height="22" viewBox="0 0 21 22" fill="none" xmlns="http://www.w3.org/2000/svg">
<path d="M13.7812 11.0264C13.7812 11.8966 13.4355 12.7312 12.8202 13.3466C12.2048 13.9619 11.3702 14.3076 10.5 14.3076C9.62976 14.3076 8.79516 13.9619 8.17981 13.3466C7.56445 12.7312 7.21875 11.8966 7.21875 11.0264C7.21875 10.8393 7.23844 10.6567 7.27234 10.4795H6.125V14.8512C6.125 15.1553 6.37109 15.4014 6.67516 15.4014H14.3259C14.4717 15.4011 14.6113 15.343 14.7143 15.2398C14.8172 15.1367 14.875 14.9969 14.875 14.8512V10.4795H13.7277C13.7616 10.6567 13.7812 10.8393 13.7812 11.0264ZM10.5 13.2139C10.7873 13.2138 11.0718 13.1571 11.3373 13.0471C11.6027 12.9371 11.8439 12.7758 12.047 12.5726C12.2502 12.3694 12.4113 12.1281 12.5212 11.8626C12.631 11.5972 12.6876 11.3126 12.6875 11.0253C12.6874 10.7379 12.6308 10.4534 12.5207 10.188C12.4107 9.92255 12.2495 9.68138 12.0462 9.47825C11.843 9.27512 11.6018 9.11401 11.3363 9.00412C11.0708 8.89423 10.7862 8.8377 10.4989 8.83777C9.9186 8.83792 9.36212 9.06858 8.95188 9.47902C8.54165 9.88947 8.31126 10.4461 8.31141 11.0264C8.31155 11.6067 8.54222 12.1632 8.95266 12.5734C9.3631 12.9836 9.91969 13.214 10.5 13.2139ZM13.125 8.72949H14.4364C14.5235 8.72949 14.6071 8.69496 14.6688 8.63345C14.7305 8.57195 14.7653 8.48849 14.7656 8.40137V7.08996C14.7656 7.00265 14.7309 6.91891 14.6692 6.85717C14.6075 6.79543 14.5237 6.76074 14.4364 6.76074H13.125C13.0377 6.76074 12.9539 6.79543 12.8922 6.85717C12.8305 6.91891 12.7958 7.00265 12.7958 7.08996V8.40137C12.7969 8.58184 12.9445 8.72949 13.125 8.72949ZM10.5 0.526367C7.71523 0.526367 5.04451 1.63261 3.07538 3.60175C1.10625 5.57088 0 8.24159 0 11.0264C0 13.8111 1.10625 16.4819 3.07538 18.451C5.04451 20.4201 7.71523 21.5264 10.5 21.5264C11.8789 21.5264 13.2443 21.2548 14.5182 20.7271C15.7921 20.1994 16.9496 19.426 17.9246 18.451C18.8996 17.476 19.6731 16.3185 20.2007 15.0445C20.7284 13.7706 21 12.4052 21 11.0264C21 9.64749 20.7284 8.28211 20.2007 7.00819C19.6731 5.73427 18.8996 4.57676 17.9246 3.60175C16.9496 2.62673 15.7921 1.85331 14.5182 1.32563C13.2443 0.797958 11.8789 0.526367 10.5 0.526367ZM15.9688 15.28C15.9688 15.9482 15.4219 16.4951 14.7536 16.4951H6.24641C5.57812 16.4951 5.03125 15.9482 5.03125 15.28V6.77277C5.03125 6.10449 5.57812 5.55762 6.24641 5.55762H14.7536C15.4219 5.55762 15.9688 6.10449 15.9688 6.77277V15.28Z" fill="currentColor"/>
</svg>
