<svg width="21" height="22" viewBox="0 0 21 22" fill="none" xmlns="http://www.w3.org/2000/svg">
<path d="M10.5 0.526367C4.70156 0.526367 0 5.22793 0 11.0264C0 16.8248 4.70156 21.5264 10.5 21.5264C16.2984 21.5264 21 16.8248 21 11.0264C21 5.22793 16.2984 0.526367 10.5 0.526367ZM15.5461 8.44121C15.5531 8.55137 15.5531 8.66621 15.5531 8.77871C15.5531 12.2193 12.9328 16.1826 8.14453 16.1826C6.66797 16.1826 5.29922 15.7537 4.14609 15.0154C4.35703 15.0389 4.55859 15.0482 4.77422 15.0482C5.99297 15.0482 7.11328 14.6357 8.00625 13.9373C6.8625 13.9139 5.90156 13.1639 5.57344 12.1326C5.97422 12.1912 6.33516 12.1912 6.74766 12.0857C6.15873 11.9661 5.62939 11.6462 5.24957 11.1805C4.86974 10.7148 4.66286 10.132 4.66406 9.53106V9.49824C5.00859 9.69277 5.41406 9.8123 5.83828 9.82871C5.48166 9.59104 5.1892 9.26905 4.98682 8.89128C4.78445 8.51351 4.67841 8.09165 4.67813 7.66309C4.67813 7.17793 4.80469 6.73496 5.03203 6.35059C5.68571 7.15528 6.5014 7.81342 7.42609 8.28222C8.35078 8.75103 9.36377 9.02001 10.3992 9.07168C10.0312 7.30215 11.3531 5.87012 12.9422 5.87012C13.6922 5.87012 14.3672 6.18418 14.843 6.69043C15.4312 6.58027 15.9937 6.35996 16.4953 6.06465C16.3008 6.66699 15.893 7.17559 15.3516 7.49668C15.8766 7.44043 16.3828 7.29512 16.8516 7.09121C16.4977 7.61152 16.0547 8.07324 15.5461 8.44121Z" fill="currentColor"/>
</svg>
